# xmcd
#
# Track frame offsets:
#	150
#	19115
#	37986
#	53447
#	69938
#	90973
#	112946
#	130230
#	148642
#	164136
#	182265
#	200887
#	225179
#	244492
#	264483
#	282940
#	296659
#	314018
#	340449
#
# Disc length: 4795 seconds
#
# Revision: 0
# Processed by: cddbd v1.5.2PL0 Copyright (c) Steve Scherf et al.
# Submitted via: EZCDAudioConverter 1.3.4.1
#
DISCID=1212b913
DTITLE=Various Artist - The New Sound Of Gospel Disc 1
DYEAR=2006
DGENRE=Gospel
TTITLE0=Mary Mary - Believer
TTITLE1=Kierra "Kiki" Sheard - You Don't Know
TTITLE2=Raymond And Co - All That I Am
TTITLE3=Pee Wee Callins - Joy
TTITLE4=Jahaziel - You Got Yours
TTITLE5=Motor City Mass Choir - Blessed Shall You Be
TTITLE6=Lisa McClendon - Soul Music
TTITLE7=Martha Munizzi - Glorious
TTITLE8=Trin-I-Tee 5:7 - Holla
TTITLE9=Kirk Franklin - Better
TTITLE10=The Company - Heavenly Places
TTITLE11=Nu Life - Natural High
TTITLE12=Hezekiah Walker - Jehovah Reigns 
TTITLE13=Ekklesia - Blessed
TTITLE14=Fred Hammond - Celebrate (He Lives)
TTITLE15=Donnie McClurkin - Draw Me Close
TTITLE16=Siani - Jesus
TTITLE17=Israel And New Breed - Not Forgotten
TTITLE18=Cece Winans - A Place Like This 
EXTD=
EXTT0=
EXTT1=
EXTT2=
EXTT3=
EXTT4=
EXTT5=
EXTT6=
EXTT7=
EXTT8=
EXTT9=
EXTT10=
EXTT11=
EXTT12=
EXTT13=
EXTT14=
EXTT15=
EXTT16=
EXTT17=
EXTT18=
PLAYORDER=
